<mxfile host="app.diagrams.net" modified="2024-04-24T14:54:52.448Z" agent="Mozilla/5.0 (Windows NT 10.0; Win64; x64) AppleWebKit/537.36 (KHTML, like Gecko) Chrome/124.0.0.0 Safari/537.36" etag="3xijBNHI46estQ2e3MIE" version="24.3.0" type="google">
  <diagram id="C5RBs43oDa-KdzZeNtuy" name="Page-1">
    <mxGraphModel dx="1687" dy="2025" grid="1" gridSize="10" guides="1" tooltips="1" connect="1" arrows="1" fold="1" page="1" pageScale="1" pageWidth="827" pageHeight="1169" math="0" shadow="0">
      <root>
        <mxCell id="WIyWlLk6GJQsqaUBKTNV-0" />
        <mxCell id="WIyWlLk6GJQsqaUBKTNV-1" parent="WIyWlLk6GJQsqaUBKTNV-0" />
        <mxCell id="HnxjTNAJtt4kV_j3L7Fh-2" style="edgeStyle=orthogonalEdgeStyle;rounded=0;orthogonalLoop=1;jettySize=auto;html=1;entryX=0.5;entryY=0;entryDx=0;entryDy=0;" edge="1" parent="WIyWlLk6GJQsqaUBKTNV-1" source="HnxjTNAJtt4kV_j3L7Fh-1">
          <mxGeometry relative="1" as="geometry">
            <mxPoint x="220" y="80" as="targetPoint" />
          </mxGeometry>
        </mxCell>
        <mxCell id="HnxjTNAJtt4kV_j3L7Fh-1" value="Start" style="strokeWidth=2;html=1;shape=mxgraph.flowchart.start_1;whiteSpace=wrap;" vertex="1" parent="WIyWlLk6GJQsqaUBKTNV-1">
          <mxGeometry x="170" y="-60" width="100" height="60" as="geometry" />
        </mxCell>
        <mxCell id="HnxjTNAJtt4kV_j3L7Fh-7" style="edgeStyle=orthogonalEdgeStyle;rounded=0;orthogonalLoop=1;jettySize=auto;html=1;entryX=1;entryY=0.5;entryDx=0;entryDy=0;entryPerimeter=0;" edge="1" parent="WIyWlLk6GJQsqaUBKTNV-1" source="HnxjTNAJtt4kV_j3L7Fh-4" target="HnxjTNAJtt4kV_j3L7Fh-1">
          <mxGeometry relative="1" as="geometry">
            <mxPoint x="380" y="20" as="targetPoint" />
            <Array as="points">
              <mxPoint x="330" y="310" />
              <mxPoint x="330" y="-30" />
            </Array>
          </mxGeometry>
        </mxCell>
        <mxCell id="HnxjTNAJtt4kV_j3L7Fh-8" value="No" style="edgeLabel;html=1;align=center;verticalAlign=middle;resizable=0;points=[];" vertex="1" connectable="0" parent="HnxjTNAJtt4kV_j3L7Fh-7">
          <mxGeometry x="0.1207" y="2" relative="1" as="geometry">
            <mxPoint as="offset" />
          </mxGeometry>
        </mxCell>
        <mxCell id="HnxjTNAJtt4kV_j3L7Fh-10" value="Yes" style="edgeStyle=orthogonalEdgeStyle;rounded=0;orthogonalLoop=1;jettySize=auto;html=1;" edge="1" parent="WIyWlLk6GJQsqaUBKTNV-1" source="HnxjTNAJtt4kV_j3L7Fh-4">
          <mxGeometry relative="1" as="geometry">
            <mxPoint x="220" y="430" as="targetPoint" />
          </mxGeometry>
        </mxCell>
        <mxCell id="HnxjTNAJtt4kV_j3L7Fh-4" value="Authorized?" style="strokeWidth=2;html=1;shape=mxgraph.flowchart.decision;whiteSpace=wrap;" vertex="1" parent="WIyWlLk6GJQsqaUBKTNV-1">
          <mxGeometry x="170" y="260" width="100" height="100" as="geometry" />
        </mxCell>
        <mxCell id="HnxjTNAJtt4kV_j3L7Fh-5" style="edgeStyle=orthogonalEdgeStyle;rounded=0;orthogonalLoop=1;jettySize=auto;html=1;entryX=0.5;entryY=0;entryDx=0;entryDy=0;entryPerimeter=0;" edge="1" parent="WIyWlLk6GJQsqaUBKTNV-1" target="HnxjTNAJtt4kV_j3L7Fh-4">
          <mxGeometry relative="1" as="geometry">
            <mxPoint x="220" y="180" as="sourcePoint" />
          </mxGeometry>
        </mxCell>
        <mxCell id="HnxjTNAJtt4kV_j3L7Fh-11" value="Display Dashboard&lt;div&gt;Content:&amp;nbsp;&lt;/div&gt;&lt;div&gt;List of Visions/Group&lt;/div&gt;&lt;div&gt;and Make Goals?&lt;br&gt;&lt;/div&gt;" style="rounded=1;whiteSpace=wrap;html=1;absoluteArcSize=1;arcSize=14;strokeWidth=2;" vertex="1" parent="WIyWlLk6GJQsqaUBKTNV-1">
          <mxGeometry x="140" y="430" width="160" height="100" as="geometry" />
        </mxCell>
        <mxCell id="HnxjTNAJtt4kV_j3L7Fh-14" style="edgeStyle=orthogonalEdgeStyle;rounded=0;orthogonalLoop=1;jettySize=auto;html=1;" edge="1" parent="WIyWlLk6GJQsqaUBKTNV-1" source="HnxjTNAJtt4kV_j3L7Fh-12">
          <mxGeometry relative="1" as="geometry">
            <mxPoint x="560" y="480" as="targetPoint" />
          </mxGeometry>
        </mxCell>
        <mxCell id="HnxjTNAJtt4kV_j3L7Fh-15" value="yes" style="edgeLabel;html=1;align=center;verticalAlign=middle;resizable=0;points=[];" vertex="1" connectable="0" parent="HnxjTNAJtt4kV_j3L7Fh-14">
          <mxGeometry x="-0.1553" y="-4" relative="1" as="geometry">
            <mxPoint as="offset" />
          </mxGeometry>
        </mxCell>
        <mxCell id="HnxjTNAJtt4kV_j3L7Fh-16" style="edgeStyle=orthogonalEdgeStyle;rounded=0;orthogonalLoop=1;jettySize=auto;html=1;entryX=0.5;entryY=1;entryDx=0;entryDy=0;" edge="1" parent="WIyWlLk6GJQsqaUBKTNV-1" source="HnxjTNAJtt4kV_j3L7Fh-12" target="HnxjTNAJtt4kV_j3L7Fh-11">
          <mxGeometry relative="1" as="geometry">
            <Array as="points">
              <mxPoint x="430" y="550" />
              <mxPoint x="220" y="550" />
            </Array>
          </mxGeometry>
        </mxCell>
        <mxCell id="HnxjTNAJtt4kV_j3L7Fh-17" value="no" style="edgeLabel;html=1;align=center;verticalAlign=middle;resizable=0;points=[];" vertex="1" connectable="0" parent="HnxjTNAJtt4kV_j3L7Fh-16">
          <mxGeometry x="-0.256" y="-3" relative="1" as="geometry">
            <mxPoint as="offset" />
          </mxGeometry>
        </mxCell>
        <mxCell id="HnxjTNAJtt4kV_j3L7Fh-12" value="Make Goals?" style="strokeWidth=2;html=1;shape=mxgraph.flowchart.decision;whiteSpace=wrap;" vertex="1" parent="WIyWlLk6GJQsqaUBKTNV-1">
          <mxGeometry x="380" y="430" width="100" height="100" as="geometry" />
        </mxCell>
        <mxCell id="HnxjTNAJtt4kV_j3L7Fh-13" style="edgeStyle=orthogonalEdgeStyle;rounded=0;orthogonalLoop=1;jettySize=auto;html=1;entryX=0;entryY=0.5;entryDx=0;entryDy=0;entryPerimeter=0;" edge="1" parent="WIyWlLk6GJQsqaUBKTNV-1" source="HnxjTNAJtt4kV_j3L7Fh-11" target="HnxjTNAJtt4kV_j3L7Fh-12">
          <mxGeometry relative="1" as="geometry" />
        </mxCell>
        <mxCell id="HnxjTNAJtt4kV_j3L7Fh-20" value="Login Input" style="shape=parallelogram;html=1;strokeWidth=2;perimeter=parallelogramPerimeter;whiteSpace=wrap;rounded=1;arcSize=12;size=0.23;" vertex="1" parent="WIyWlLk6GJQsqaUBKTNV-1">
          <mxGeometry x="130" y="80" width="180" height="100" as="geometry" />
        </mxCell>
        <mxCell id="HnxjTNAJtt4kV_j3L7Fh-23" style="edgeStyle=orthogonalEdgeStyle;rounded=0;orthogonalLoop=1;jettySize=auto;html=1;" edge="1" parent="WIyWlLk6GJQsqaUBKTNV-1" source="HnxjTNAJtt4kV_j3L7Fh-21">
          <mxGeometry relative="1" as="geometry">
            <mxPoint x="630" y="390" as="targetPoint" />
          </mxGeometry>
        </mxCell>
        <mxCell id="HnxjTNAJtt4kV_j3L7Fh-21" value="Input Vision/Grouping&lt;div&gt;Input Prompt (Guided)&lt;/div&gt;" style="shape=parallelogram;html=1;strokeWidth=2;perimeter=parallelogramPerimeter;whiteSpace=wrap;rounded=1;arcSize=12;size=0.23;" vertex="1" parent="WIyWlLk6GJQsqaUBKTNV-1">
          <mxGeometry x="540" y="430" width="180" height="100" as="geometry" />
        </mxCell>
        <mxCell id="HnxjTNAJtt4kV_j3L7Fh-25" style="edgeStyle=orthogonalEdgeStyle;rounded=0;orthogonalLoop=1;jettySize=auto;html=1;entryX=1;entryY=0.5;entryDx=0;entryDy=0;" edge="1" parent="WIyWlLk6GJQsqaUBKTNV-1" source="HnxjTNAJtt4kV_j3L7Fh-24" target="HnxjTNAJtt4kV_j3L7Fh-21">
          <mxGeometry relative="1" as="geometry">
            <Array as="points">
              <mxPoint x="750" y="340" />
              <mxPoint x="750" y="480" />
            </Array>
          </mxGeometry>
        </mxCell>
        <mxCell id="HnxjTNAJtt4kV_j3L7Fh-26" value="No" style="edgeLabel;html=1;align=center;verticalAlign=middle;resizable=0;points=[];" vertex="1" connectable="0" parent="HnxjTNAJtt4kV_j3L7Fh-25">
          <mxGeometry x="-0.1791" y="-1" relative="1" as="geometry">
            <mxPoint as="offset" />
          </mxGeometry>
        </mxCell>
        <mxCell id="HnxjTNAJtt4kV_j3L7Fh-29" style="edgeStyle=orthogonalEdgeStyle;rounded=0;orthogonalLoop=1;jettySize=auto;html=1;entryX=0.5;entryY=1;entryDx=0;entryDy=0;" edge="1" parent="WIyWlLk6GJQsqaUBKTNV-1" source="HnxjTNAJtt4kV_j3L7Fh-24" target="HnxjTNAJtt4kV_j3L7Fh-28">
          <mxGeometry relative="1" as="geometry" />
        </mxCell>
        <mxCell id="HnxjTNAJtt4kV_j3L7Fh-24" value="Confirm?" style="strokeWidth=2;html=1;shape=mxgraph.flowchart.decision;whiteSpace=wrap;" vertex="1" parent="WIyWlLk6GJQsqaUBKTNV-1">
          <mxGeometry x="580" y="290" width="100" height="100" as="geometry" />
        </mxCell>
        <mxCell id="HnxjTNAJtt4kV_j3L7Fh-28" value="Display Generated Tasks" style="rounded=1;whiteSpace=wrap;html=1;absoluteArcSize=1;arcSize=14;strokeWidth=2;" vertex="1" parent="WIyWlLk6GJQsqaUBKTNV-1">
          <mxGeometry x="550" y="170" width="160" height="100" as="geometry" />
        </mxCell>
        <mxCell id="HnxjTNAJtt4kV_j3L7Fh-31" style="edgeStyle=orthogonalEdgeStyle;rounded=0;orthogonalLoop=1;jettySize=auto;html=1;entryX=0.206;entryY=0.06;entryDx=0;entryDy=0;exitX=0;exitY=0.5;exitDx=0;exitDy=0;exitPerimeter=0;entryPerimeter=0;" edge="1" parent="WIyWlLk6GJQsqaUBKTNV-1" source="HnxjTNAJtt4kV_j3L7Fh-30" target="HnxjTNAJtt4kV_j3L7Fh-21">
          <mxGeometry relative="1" as="geometry">
            <Array as="points">
              <mxPoint x="520" y="70" />
              <mxPoint x="520" y="436" />
            </Array>
          </mxGeometry>
        </mxCell>
        <mxCell id="HnxjTNAJtt4kV_j3L7Fh-33" value="no" style="edgeLabel;html=1;align=center;verticalAlign=middle;resizable=0;points=[];" vertex="1" connectable="0" parent="HnxjTNAJtt4kV_j3L7Fh-31">
          <mxGeometry x="-0.511" y="5" relative="1" as="geometry">
            <mxPoint as="offset" />
          </mxGeometry>
        </mxCell>
        <mxCell id="HnxjTNAJtt4kV_j3L7Fh-36" style="edgeStyle=orthogonalEdgeStyle;rounded=0;orthogonalLoop=1;jettySize=auto;html=1;" edge="1" parent="WIyWlLk6GJQsqaUBKTNV-1" source="HnxjTNAJtt4kV_j3L7Fh-30">
          <mxGeometry relative="1" as="geometry">
            <mxPoint x="810" y="70" as="targetPoint" />
          </mxGeometry>
        </mxCell>
        <mxCell id="HnxjTNAJtt4kV_j3L7Fh-37" value="Yes" style="edgeLabel;html=1;align=center;verticalAlign=middle;resizable=0;points=[];" vertex="1" connectable="0" parent="HnxjTNAJtt4kV_j3L7Fh-36">
          <mxGeometry x="0.2646" y="2" relative="1" as="geometry">
            <mxPoint as="offset" />
          </mxGeometry>
        </mxCell>
        <mxCell id="HnxjTNAJtt4kV_j3L7Fh-30" value="Accept Task ?" style="strokeWidth=2;html=1;shape=mxgraph.flowchart.decision;whiteSpace=wrap;" vertex="1" parent="WIyWlLk6GJQsqaUBKTNV-1">
          <mxGeometry x="580" y="20" width="100" height="100" as="geometry" />
        </mxCell>
        <mxCell id="HnxjTNAJtt4kV_j3L7Fh-32" style="edgeStyle=orthogonalEdgeStyle;rounded=0;orthogonalLoop=1;jettySize=auto;html=1;entryX=0.5;entryY=1;entryDx=0;entryDy=0;entryPerimeter=0;" edge="1" parent="WIyWlLk6GJQsqaUBKTNV-1" source="HnxjTNAJtt4kV_j3L7Fh-28" target="HnxjTNAJtt4kV_j3L7Fh-30">
          <mxGeometry relative="1" as="geometry" />
        </mxCell>
        <mxCell id="HnxjTNAJtt4kV_j3L7Fh-42" style="edgeStyle=orthogonalEdgeStyle;rounded=0;orthogonalLoop=1;jettySize=auto;html=1;entryX=0;entryY=0.5;entryDx=0;entryDy=0;" edge="1" parent="WIyWlLk6GJQsqaUBKTNV-1" source="HnxjTNAJtt4kV_j3L7Fh-40" target="HnxjTNAJtt4kV_j3L7Fh-41">
          <mxGeometry relative="1" as="geometry" />
        </mxCell>
        <mxCell id="HnxjTNAJtt4kV_j3L7Fh-40" value="add to table" style="strokeWidth=2;html=1;shape=mxgraph.flowchart.database;whiteSpace=wrap;" vertex="1" parent="WIyWlLk6GJQsqaUBKTNV-1">
          <mxGeometry x="810" y="20" width="60" height="90" as="geometry" />
        </mxCell>
        <mxCell id="HnxjTNAJtt4kV_j3L7Fh-43" style="edgeStyle=orthogonalEdgeStyle;rounded=0;orthogonalLoop=1;jettySize=auto;html=1;" edge="1" parent="WIyWlLk6GJQsqaUBKTNV-1" source="HnxjTNAJtt4kV_j3L7Fh-41">
          <mxGeometry relative="1" as="geometry">
            <mxPoint x="1030" y="170" as="targetPoint" />
          </mxGeometry>
        </mxCell>
        <mxCell id="HnxjTNAJtt4kV_j3L7Fh-41" value="Display Goals Page&lt;div&gt;Content: Lists Of Goals&lt;/div&gt;" style="rounded=1;whiteSpace=wrap;html=1;absoluteArcSize=1;arcSize=14;strokeWidth=2;" vertex="1" parent="WIyWlLk6GJQsqaUBKTNV-1">
          <mxGeometry x="950" y="15" width="160" height="100" as="geometry" />
        </mxCell>
        <mxCell id="HnxjTNAJtt4kV_j3L7Fh-46" value="" style="edgeStyle=orthogonalEdgeStyle;rounded=0;orthogonalLoop=1;jettySize=auto;html=1;" edge="1" parent="WIyWlLk6GJQsqaUBKTNV-1" source="HnxjTNAJtt4kV_j3L7Fh-44" target="HnxjTNAJtt4kV_j3L7Fh-45">
          <mxGeometry relative="1" as="geometry" />
        </mxCell>
        <mxCell id="HnxjTNAJtt4kV_j3L7Fh-44" value="Click a Goal" style="strokeWidth=2;html=1;shape=mxgraph.flowchart.decision;whiteSpace=wrap;" vertex="1" parent="WIyWlLk6GJQsqaUBKTNV-1">
          <mxGeometry x="980" y="170" width="100" height="100" as="geometry" />
        </mxCell>
        <mxCell id="HnxjTNAJtt4kV_j3L7Fh-45" value="Display the Goal&#39;s Tasks" style="rounded=1;whiteSpace=wrap;html=1;absoluteArcSize=1;arcSize=14;strokeWidth=2;" vertex="1" parent="WIyWlLk6GJQsqaUBKTNV-1">
          <mxGeometry x="950" y="330" width="160" height="100" as="geometry" />
        </mxCell>
      </root>
    </mxGraphModel>
  </diagram>
</mxfile>
